<svg xmlns="http://www.w3.org/2000/svg" width="1567.237" height="879.042" viewBox="0 0 1567.237 879.042"><defs><style>.a,.c{fill:#f6a833;}.b,.f{fill:#fff;}.b,.g{font-size:24px;}.b,.c,.g{font-family:Avenir-Heavy, Avenir;font-weight:800;}.c{font-size:32px;}.d{fill:#f66833;}.e{fill:#f26933;}.g{fill:#52330d;}</style></defs><g transform="translate(-91.763 -414.479)"><g transform="translate(208 146.451)"><rect class="a" width="150" height="150" rx="10" transform="translate(1301 715.265)"/><text class="b" transform="translate(1376 781.765)"><tspan x="-70.248" y="0">Marketing &amp;</tspan><tspan x="-50.916" y="32">Branding</tspan></text></g><g transform="translate(-234.776 -39.265)"><path class="a" d="M73.337,4.263a10,10,0,0,1,11.747,0l67.452,48.952A10,10,0,0,1,156.172,64.4l-25.76,79.192a10,10,0,0,1-9.51,6.907H37.519a10,10,0,0,1-9.51-6.907L2.249,64.4A10,10,0,0,1,5.885,53.215Z" transform="translate(1511.579 715.265)"/><text class="b" transform="translate(1590.79 791.265)"><tspan x="-51.096" y="0">Business </tspan><tspan x="-48.012" y="32">Strategy</tspan></text></g><g transform="translate(-9.807 -246.265)"><path class="a" d="M77.342,14.978a10,10,0,0,1,17.315,0l68.669,118.8a10,10,0,0,1-8.658,15H17.331a10,10,0,0,1-8.658-15Z" transform="translate(1661 912.265) rotate(90)"/><text class="b" transform="translate(1562.79 991.765)"><tspan x="-39.12" y="0">Mobile</tspan><tspan x="-29.112" y="28">Apps</tspan></text></g><g transform="translate(-49 -65.549)"><path class="a" d="M123.973,0a10,10,0,0,1,8.663,5l37.483,65a10,10,0,0,1,0,9.991l-37.483,65a10,10,0,0,1-8.663,5H49.027a10,10,0,0,1-8.663-5L2.881,80a10,10,0,0,1,0-9.991L40.364,5a10,10,0,0,1,8.663-5Z" transform="translate(1090 927.265)"/><text class="b" transform="translate(1177 989.265)"><tspan x="-54.684" y="0">Hardware</tspan><tspan x="-67.8" y="32">Engineering</tspan></text></g><text class="c" transform="translate(1214 617.398)"><tspan x="-155.008" y="0">Gaps we can help fill</tspan></text><g transform="translate(-341 -7488.283)"><path class="a" d="M63,0h89a61,61,0,0,1,61,61v2a63,63,0,0,1-63,63H63A63,63,0,0,1,0,63v0A63,63,0,0,1,63,0Z" transform="translate(1596 8362)"/><text class="b" transform="translate(1702.5 8416.5)"><tspan x="-91.764" y="0">Web / Software </tspan><tspan x="-75.996" y="32">Development</tspan></text></g><g transform="matrix(0.995, 0.105, -0.105, 0.995, 155.858, 24.261)"><circle class="d" cx="312.5" cy="312.5" r="312.5" transform="translate(18.158 785.951) rotate(-45)"/><g transform="translate(-930.697 -564.998)"><g transform="translate(-3.978 0.418)"><path class="e" d="M1170.516,1103.352l2.514-2.154,10.386,7.222.037-.031-5.062-11.78,2.259-1.935,10.8,6.862.037-.031-5.426-11.468,2.332-2,7.3,16.123-2.187,1.872-11.4-7.265-.037.031,5.424,12.386-2.115,1.811Z"/><path class="e" d="M1196.97,1090.573l.038-.028a3.354,3.354,0,0,1,.155-1.761,3.787,3.787,0,0,1,1.394-1.8,4.511,4.511,0,0,1,1.789-.877,3.691,3.691,0,0,1,1.652.012,3.8,3.8,0,0,1,1.444.711,6.7,6.7,0,0,1,1.2,1.227l4.4,5.792-2.293,1.741-3.526-4.645c-.2-.256-.423-.528-.685-.822a3.914,3.914,0,0,0-.869-.727,2.057,2.057,0,0,0-1.027-.3,1.825,1.825,0,0,0-1.148.433,2.742,2.742,0,0,0-.82.924,2.345,2.345,0,0,0-.259,1.01,2.609,2.609,0,0,0,.193,1.028,4.233,4.233,0,0,0,.553.967l3.8,5.008-2.293,1.742-10.973-14.451,2.295-1.741Z"/><path class="e" d="M1216.549,1086.636l-.059.04a3.719,3.719,0,0,1-.484,2.077,5,5,0,0,1-1.482,1.57,5.614,5.614,0,0,1-1.394.706,4.225,4.225,0,0,1-1.474.237,3.34,3.34,0,0,1-1.394-.346,3.072,3.072,0,0,1-1.158-1.036,3.475,3.475,0,0,1-.636-1.5,3.292,3.292,0,0,1,.108-1.42,4.584,4.584,0,0,1,.67-1.328,8.987,8.987,0,0,1,1.045-1.209,13.732,13.732,0,0,1,1.234-1.062c.434-.331.846-.633,1.242-.907l.59-.411-.177-.255a1.872,1.872,0,0,0-1.536-.906,3.158,3.158,0,0,0-1.866.638,4.485,4.485,0,0,0-1.214,1.24,4.338,4.338,0,0,0-.624,1.5l-2.1-.378a5.6,5.6,0,0,1,1.034-2.444,8.282,8.282,0,0,1,1.931-1.869,6.71,6.71,0,0,1,1.852-.952,4.57,4.57,0,0,1,1.548-.213,3.167,3.167,0,0,1,1.268.331,4.658,4.658,0,0,1,1.006.69,6.116,6.116,0,0,1,.764.828c.219.285.406.541.561.764l3.782,5.439-2.129,1.48Zm-2.179-2.84-.493.342q-.492.344-1.076.807a7.069,7.069,0,0,0-1.022.988,3.209,3.209,0,0,0-.615,1.071,1.154,1.154,0,0,0,.18,1.058,1.234,1.234,0,0,0,.539.459,1.63,1.63,0,0,0,.652.118,1.96,1.96,0,0,0,.69-.145,3.606,3.606,0,0,0,2.037-2.176,2.612,2.612,0,0,0-.522-1.99Z"/><path class="e" d="M1216.021,1077.936l-1.326-2.057,2-1.287-1.807-2.805,2.42-1.561,1.808,2.8,2.662-1.717,1.327,2.058-2.663,1.717,2.731,4.236a2.493,2.493,0,0,0,1.014.973,1.41,1.41,0,0,0,1.351-.272,4.547,4.547,0,0,0,.661-.525,1.759,1.759,0,0,0,.456-.622l1.313,2.038a3.745,3.745,0,0,1-.775.856,9.271,9.271,0,0,1-.933.7,5.885,5.885,0,0,1-1.72.809,2.5,2.5,0,0,1-1.385-.021,2.91,2.91,0,0,1-1.179-.768,8.96,8.96,0,0,1-1.093-1.408l-2.861-4.438Z"/><path class="e" d="M1222.15,1064.674l2.5-1.522,1.551,6.473-2.193,1.334Z"/><path class="e" d="M1235.488,1066.857a2.634,2.634,0,0,0-2.541.112,2.414,2.414,0,0,0-.832.814.983.983,0,0,0-.01,1.086.808.808,0,0,0,.78.438,4.977,4.977,0,0,0,1.2-.225q.685-.2,1.473-.449a5.877,5.877,0,0,1,1.574-.274,3.3,3.3,0,0,1,1.509.307,3.039,3.039,0,0,1,1.283,1.309,3.2,3.2,0,0,1,.486,1.728,3.487,3.487,0,0,1-.425,1.563,5.107,5.107,0,0,1-1.07,1.339,8.359,8.359,0,0,1-1.44,1.056,7.662,7.662,0,0,1-2.332.905,4.678,4.678,0,0,1-2.443-.2l.761-2.518a5.424,5.424,0,0,0,1.539.287,2.876,2.876,0,0,0,1.538-.432,3,3,0,0,0,.526-.388,2.075,2.075,0,0,0,.418-.519,1.471,1.471,0,0,0,.2-.6,1,1,0,0,0-.139-.6.978.978,0,0,0-.839-.542,4.017,4.017,0,0,0-1.231.174c-.462.127-.951.282-1.467.459a5.765,5.765,0,0,1-1.551.315,3.146,3.146,0,0,1-1.484-.265,2.874,2.874,0,0,1-1.26-1.267,3.364,3.364,0,0,1-.492-1.642,3.461,3.461,0,0,1,.32-1.529,4.5,4.5,0,0,1,.953-1.328,6.747,6.747,0,0,1,3.537-1.838,3.707,3.707,0,0,1,2.258.259Z"/><path class="e" d="M1244.487,1058.291l2.448-1.225.825,1.654.044-.022a4.03,4.03,0,0,1,.445-1.9,3.7,3.7,0,0,1,1.755-1.59,4.535,4.535,0,0,1,1.922-.531,3.692,3.692,0,0,1,1.619.317,3.8,3.8,0,0,1,1.289.966,6.639,6.639,0,0,1,.955,1.428l3.253,6.5-2.577,1.287-2.608-5.215c-.142-.287-.317-.6-.521-.934a3.811,3.811,0,0,0-.719-.876,2.055,2.055,0,0,0-.955-.487,1.813,1.813,0,0,0-1.207.215,2.725,2.725,0,0,0-.977.756,2.334,2.334,0,0,0-.44.945,2.59,2.59,0,0,0,0,1.045,4.184,4.184,0,0,0,.365,1.053l2.814,5.624-2.577,1.288Z"/><path class="e" d="M1261.989,1057.3a2.926,2.926,0,0,0,1.743,1.43,3.155,3.155,0,0,0,2.2-.195,3.433,3.433,0,0,0,1.473-1.145,5.008,5.008,0,0,0,.717-1.542l2.521.583a5.854,5.854,0,0,1-1.334,2.541,6.652,6.652,0,0,1-2.174,1.549,6.932,6.932,0,0,1-2.41.6,5.877,5.877,0,0,1-2.319-.3,5.788,5.788,0,0,1-1.994-1.2,6.507,6.507,0,0,1-2.027-4.535,5.758,5.758,0,0,1,.437-2.285,5.855,5.855,0,0,1,1.319-1.93,6.913,6.913,0,0,1,2.058-1.394,5.6,5.6,0,0,1,2.176-.512,4.722,4.722,0,0,1,2.051.41,5.6,5.6,0,0,1,1.806,1.336,8.336,8.336,0,0,1,1.454,2.281l.322.723Zm4.508-4.381a2.71,2.71,0,0,0-1.54-1.506,2.98,2.98,0,0,0-2.249.2,2.8,2.8,0,0,0-1.569,1.518,3.323,3.323,0,0,0-.032,2.195Z"/><path class="e" d="M1274.673,1051.815a2.922,2.922,0,0,0,1.68,1.5,3.156,3.156,0,0,0,2.206-.1,3.446,3.446,0,0,0,1.521-1.08,5.01,5.01,0,0,0,.783-1.51l2.493.69a5.847,5.847,0,0,1-1.444,2.482,6.655,6.655,0,0,1-2.238,1.453,6.939,6.939,0,0,1-2.436.5,5.886,5.886,0,0,1-2.3-.405,5.783,5.783,0,0,1-1.941-1.285,6.537,6.537,0,0,1-1.83-4.619,5.731,5.731,0,0,1,1.939-4.136,6.915,6.915,0,0,1,2.118-1.3,5.593,5.593,0,0,1,2.195-.417,4.684,4.684,0,0,1,2.031.5,5.588,5.588,0,0,1,1.746,1.413,8.246,8.246,0,0,1,1.354,2.342l.291.736Zm4.694-4.18a2.713,2.713,0,0,0-1.473-1.573,2.965,2.965,0,0,0-2.255.106,2.792,2.792,0,0,0-1.635,1.446,3.33,3.33,0,0,0-.126,2.193Z"/><path class="e" d="M1294.991,1047.533l-.045.016a3.708,3.708,0,0,1-1.089,2,5.431,5.431,0,0,1-2,1.195,5.765,5.765,0,0,1-2.41.334,5.315,5.315,0,0,1-2.109-.633,5.488,5.488,0,0,1-1.692-1.448,7.173,7.173,0,0,1-1.134-2.122,6.742,6.742,0,0,1-.387-2.379,5.9,5.9,0,0,1,.453-2.187,5.248,5.248,0,0,1,1.25-1.787,5.39,5.39,0,0,1,1.982-1.177,5.569,5.569,0,0,1,1.417-.31,4.939,4.939,0,0,1,1.183.051,4.351,4.351,0,0,1,.955.268,4.031,4.031,0,0,1,.713.377l.068-.024-2.63-7.648,2.724-.938,5.9,17.158-2.588.89Zm-7.757-1.6a3.8,3.8,0,0,0,.637,1.151,3.251,3.251,0,0,0,.995.826,3.367,3.367,0,0,0,1.26.379,3.4,3.4,0,0,0,3.438-1.994,3.25,3.25,0,0,0,.276-1.264,3.716,3.716,0,0,0-.2-1.3,3.793,3.793,0,0,0-.637-1.151,3.247,3.247,0,0,0-.995-.825,3.5,3.5,0,0,0-3.937.542,3.321,3.321,0,0,0-.761,1.074,3.257,3.257,0,0,0-.277,1.262A3.778,3.778,0,0,0,1287.234,1045.937Z"/><path class="e" d="M1301.979,1042.142a2.922,2.922,0,0,0,1.535,1.649,3.155,3.155,0,0,0,2.206.1,3.446,3.446,0,0,0,1.614-.936,5.015,5.015,0,0,0,.918-1.434l2.42.916a5.841,5.841,0,0,1-1.666,2.34,6.58,6.58,0,0,1-2.361,1.242,6.877,6.877,0,0,1-2.47.276,5.874,5.874,0,0,1-2.255-.613,5.772,5.772,0,0,1-1.816-1.457,6.515,6.515,0,0,1-1.4-4.766,5.727,5.727,0,0,1,2.308-3.942,6.912,6.912,0,0,1,2.227-1.1,5.6,5.6,0,0,1,2.226-.216,4.715,4.715,0,0,1,1.976.683,5.616,5.616,0,0,1,1.61,1.566,8.33,8.33,0,0,1,1.134,2.457l.222.76Zm5.056-3.736a2.714,2.714,0,0,0-1.322-1.7,2.986,2.986,0,0,0-2.256-.1,2.8,2.8,0,0,0-1.76,1.291,3.327,3.327,0,0,0-.326,2.172Z"/><path class="e" d="M1322.592,1039.736l-.046.012a3.707,3.707,0,0,1-1.267,1.891,5.427,5.427,0,0,1-2.1,1.007,5.809,5.809,0,0,1-2.431.113,5.365,5.365,0,0,1-2.041-.823,5.506,5.506,0,0,1-1.552-1.6,7.144,7.144,0,0,1-.937-2.217,6.764,6.764,0,0,1-.167-2.4,5.924,5.924,0,0,1,.651-2.137,5.294,5.294,0,0,1,1.409-1.666,5.37,5.37,0,0,1,2.079-.99,5.586,5.586,0,0,1,1.44-.178,4.915,4.915,0,0,1,1.176.158,4.359,4.359,0,0,1,.925.354,3.992,3.992,0,0,1,.676.439l.071-.017-1.92-7.856,2.8-.683,4.308,17.625-2.658.65Zm-7.576-2.3a3.709,3.709,0,0,0,.528,1.206,3.3,3.3,0,0,0,.915.913,3.406,3.406,0,0,0,4.826-1.18,3.268,3.268,0,0,0,.391-1.231,3.791,3.791,0,0,0-.615-2.518,3.265,3.265,0,0,0-.915-.914,3.378,3.378,0,0,0-1.22-.492,3.4,3.4,0,0,0-3.606,1.672,3.2,3.2,0,0,0-.39,1.232A3.655,3.655,0,0,0,1315.016,1037.437Z"/><path class="e" d="M1334.979,1029.646l-2.338.424-.438-2.408,2.338-.424-.291-1.6a12.862,12.862,0,0,1-.223-2.168,4.256,4.256,0,0,1,.327-1.754,2.987,2.987,0,0,1,1.1-1.285,5.426,5.426,0,0,1,2.082-.756,9.342,9.342,0,0,1,1.824-.161l.249,2.443c-.212-.011-.417-.014-.612-.013a3.7,3.7,0,0,0-.6.063,2.042,2.042,0,0,0-.911.359,1.45,1.45,0,0,0-.462.609,1.881,1.881,0,0,0-.125.791,6.514,6.514,0,0,0,.1.908l.373,2.055,2.621-.476.438,2.408-2.621.476,1.621,8.926-2.834.514Z"/><path class="e" d="M1342.373,1031.652a6.081,6.081,0,0,1,.133-2.528,5.807,5.807,0,0,1,1.047-2.079,5.881,5.881,0,0,1,1.8-1.495,7.148,7.148,0,0,1,4.847-.7,5.712,5.712,0,0,1,3.736,2.626,6.525,6.525,0,0,1,.707,4.918,5.825,5.825,0,0,1-1.047,2.079,5.894,5.894,0,0,1-1.8,1.494,7.167,7.167,0,0,1-4.846.7,5.717,5.717,0,0,1-3.736-2.627A6.061,6.061,0,0,1,1342.373,1031.652Zm2.851-.409a3.707,3.707,0,0,0,.41,1.249,3.233,3.233,0,0,0,.822,1,3.4,3.4,0,0,0,4.917-.707,3.276,3.276,0,0,0,.509-1.189,3.813,3.813,0,0,0-.369-2.565,3.261,3.261,0,0,0-.824-1,3.4,3.4,0,0,0-4.916.707,3.216,3.216,0,0,0-.507,1.19A3.7,3.7,0,0,0,1345.224,1031.243Z"/><path class="e" d="M1356.922,1023.859l2.865-.3.19,1.813.048,0a3.612,3.612,0,0,1,1.2-1.694,3.787,3.787,0,0,1,1.97-.763,2.814,2.814,0,0,1,.519-.006c.17.015.345.036.525.066l.291,2.767q-.367-.055-.72-.08a4.015,4.015,0,0,0-.687.012,3.086,3.086,0,0,0-1.572.54,2.94,2.94,0,0,0-.842.944,2.8,2.8,0,0,0-.328,1,3.549,3.549,0,0,0-.033.727l.644,6.135-2.864.3Z"/><path class="e" d="M1381.372,1031.947l-.071,0a3.716,3.716,0,0,1-1.517,1.5,4.964,4.964,0,0,1-2.089.541,5.525,5.525,0,0,1-1.556-.142,4.227,4.227,0,0,1-1.373-.585,3.334,3.334,0,0,1-1-1.034,3.066,3.066,0,0,1-.432-1.495,3.5,3.5,0,0,1,.262-1.609,3.292,3.292,0,0,1,.847-1.146,4.632,4.632,0,0,1,1.274-.768,9.113,9.113,0,0,1,1.527-.467,14.28,14.28,0,0,1,1.611-.244q.813-.073,1.533-.107l.718-.034-.014-.311a1.868,1.868,0,0,0-.819-1.583,3.141,3.141,0,0,0-1.92-.452,4.429,4.429,0,0,0-1.685.4,4.335,4.335,0,0,0-1.326.938l-1.581-1.439a5.588,5.588,0,0,1,2.175-1.52,8.258,8.258,0,0,1,2.628-.554,6.674,6.674,0,0,1,2.075.178,4.577,4.577,0,0,1,1.424.643,3.124,3.124,0,0,1,.9.955,4.583,4.583,0,0,1,.484,1.118,6.21,6.21,0,0,1,.209,1.108c.031.359.055.674.068.946l.309,6.616-2.588.121Zm-.335-3.564-.6.028q-.6.029-1.34.11a7.17,7.17,0,0,0-1.393.293,3.222,3.222,0,0,0-1.09.581,1.152,1.152,0,0,0-.409.992,1.241,1.241,0,0,0,.21.675,1.649,1.649,0,0,0,.49.445,1.943,1.943,0,0,0,.66.245,3.11,3.11,0,0,0,.724.051,2.989,2.989,0,0,0,2.159-.81,2.6,2.6,0,0,0,.617-1.964Z"/><path class="e" d="M1400.244,1025.034a2.642,2.642,0,0,0-2.24-1.206,2.418,2.418,0,0,0-1.132.274.974.974,0,0,0-.563.927.8.8,0,0,0,.445.776,4.975,4.975,0,0,0,1.146.422q.695.178,1.495.369a5.909,5.909,0,0,1,1.494.572,3.271,3.271,0,0,1,1.137,1.035,3.039,3.039,0,0,1,.433,1.781,3.227,3.227,0,0,1-.467,1.735,3.474,3.474,0,0,1-1.168,1.123,5.054,5.054,0,0,1-1.6.6,8.332,8.332,0,0,1-1.78.169,7.6,7.6,0,0,1-2.465-.417,4.668,4.668,0,0,1-2-1.419l1.943-1.774a5.367,5.367,0,0,0,1.174,1.036,2.872,2.872,0,0,0,1.543.417,3.21,3.21,0,0,0,.648-.064,2.111,2.111,0,0,0,.628-.231,1.5,1.5,0,0,0,.474-.414.992.992,0,0,0,.187-.586.977.977,0,0,0-.443-.894,4.084,4.084,0,0,0-1.147-.483q-.695-.189-1.5-.355a5.782,5.782,0,0,1-1.492-.526,3.116,3.116,0,0,1-1.139-.986,2.881,2.881,0,0,1-.433-1.734,3.366,3.366,0,0,1,.418-1.663,3.486,3.486,0,0,1,1.058-1.15,4.518,4.518,0,0,1,1.5-.651,6.762,6.762,0,0,1,3.981.232,3.736,3.736,0,0,1,1.806,1.38Z"/><path class="e" d="M1414.994,1034l-2.732-.143.1-1.845-.046,0a4.07,4.07,0,0,1-1.325,1.432,3.686,3.686,0,0,1-2.31.517,4.616,4.616,0,0,1-1.934-.473,3.5,3.5,0,0,1-1.254-1.074,3.928,3.928,0,0,1-.644-1.488,6.644,6.644,0,0,1-.127-1.713l.377-7.262,2.877.149-.3,5.824q-.027.48-.008,1.07a3.841,3.841,0,0,0,.194,1.115,2.11,2.11,0,0,0,.58.9,1.806,1.806,0,0,0,1.168.41,2.744,2.744,0,0,0,1.222-.178,2.3,2.3,0,0,0,.848-.6,2.558,2.558,0,0,0,.516-.91,4.2,4.2,0,0,0,.2-1.095l.326-6.279,2.875.148Z"/><path class="e" d="M1426.678,1026.935a4.562,4.562,0,0,0-.975-.934,2.279,2.279,0,0,0-1.095-.415,3.289,3.289,0,0,0-2.57.824,3.249,3.249,0,0,0-.77,1.037,3.795,3.795,0,0,0-.239,2.582,3.246,3.246,0,0,0,.569,1.16,3.276,3.276,0,0,0,2.376,1.28,2.851,2.851,0,0,0,1.268-.16,2.721,2.721,0,0,0,1.053-.709l1.723,2.23a4.442,4.442,0,0,1-1.06.65,6.867,6.867,0,0,1-1.182.4,7.258,7.258,0,0,1-1.124.174,6.193,6.193,0,0,1-.916,0,6.955,6.955,0,0,1-2.4-.655,5.878,5.878,0,0,1-1.871-1.4,5.771,5.771,0,0,1-1.151-2.022,6.075,6.075,0,0,1-.263-2.518,6.137,6.137,0,0,1,.718-2.43,5.731,5.731,0,0,1,3.6-2.812,6.882,6.882,0,0,1,2.477-.205,6.283,6.283,0,0,1,2.174.621,5.084,5.084,0,0,1,1.824,1.506Z"/><path class="e" d="M1438.313,1028.357a4.563,4.563,0,0,0-.94-.968,2.253,2.253,0,0,0-1.078-.453,3.321,3.321,0,0,0-1.441.1,3.37,3.37,0,0,0-1.158.625,3.226,3.226,0,0,0-.807,1.009,3.739,3.739,0,0,0-.392,1.257,3.694,3.694,0,0,0,.061,1.314,3.232,3.232,0,0,0,.525,1.182,3.318,3.318,0,0,0,.96.9,3.363,3.363,0,0,0,1.367.466,2.835,2.835,0,0,0,1.274-.114,2.718,2.718,0,0,0,1.078-.672l1.64,2.293a4.411,4.411,0,0,1-1.082.61,6.761,6.761,0,0,1-1.2.355,7.078,7.078,0,0,1-1.129.133,6.067,6.067,0,0,1-.916-.034,6.908,6.908,0,0,1-2.373-.742,5.72,5.72,0,0,1-2.9-3.531,6.525,6.525,0,0,1,.635-4.928,5.721,5.721,0,0,1,3.7-2.681,6.932,6.932,0,0,1,2.483-.115,6.324,6.324,0,0,1,2.148.7,5.054,5.054,0,0,1,1.769,1.572Z"/><path class="e" d="M1443.861,1032.549a2.917,2.917,0,0,0,.657,2.155,3.146,3.146,0,0,0,1.937,1.058,3.429,3.429,0,0,0,1.86-.134,5.031,5.031,0,0,0,1.454-.886l1.774,1.883a5.839,5.839,0,0,1-2.522,1.374,6.669,6.669,0,0,1-2.667.084,6.954,6.954,0,0,1-2.34-.835,5.727,5.727,0,0,1-2.755-3.644,6.521,6.521,0,0,1,.829-4.9,5.791,5.791,0,0,1,1.633-1.659,5.859,5.859,0,0,1,2.168-.874,6.892,6.892,0,0,1,2.486-.017,5.6,5.6,0,0,1,2.1.78,4.724,4.724,0,0,1,1.477,1.481,5.6,5.6,0,0,1,.761,2.112,8.241,8.241,0,0,1-.057,2.7l-.131.782Zm6.18-1.145a2.7,2.7,0,0,0-.445-2.107,2.969,2.969,0,0,0-1.985-1.079,2.793,2.793,0,0,0-2.146.391,3.324,3.324,0,0,0-1.244,1.809Z"/><path class="e" d="M1461.916,1032.314a2.637,2.637,0,0,0-1.965-1.613,2.44,2.44,0,0,0-1.163.049.982.982,0,0,0-.732.8.8.8,0,0,0,.288.845,4.991,4.991,0,0,0,1.043.637c.431.2.9.42,1.4.649a5.848,5.848,0,0,1,1.355.848,3.281,3.281,0,0,1,.918,1.235,3.04,3.04,0,0,1,.082,1.831,3.243,3.243,0,0,1-.793,1.613,3.5,3.5,0,0,1-1.362.878,5.141,5.141,0,0,1-1.69.283,8.382,8.382,0,0,1-1.777-.177,7.6,7.6,0,0,1-2.341-.884,4.688,4.688,0,0,1-1.687-1.776l2.249-1.367a5.461,5.461,0,0,0,.953,1.242,2.863,2.863,0,0,0,1.434.7,3,3,0,0,0,.648.063,2.032,2.032,0,0,0,.661-.107,1.477,1.477,0,0,0,.545-.315,1.079,1.079,0,0,0,.032-1.5,4.018,4.018,0,0,0-1.031-.695q-.645-.32-1.4-.637a5.818,5.818,0,0,1-1.364-.8,3.147,3.147,0,0,1-.928-1.188,2.883,2.883,0,0,1-.092-1.785,3.346,3.346,0,0,1,.731-1.55,3.456,3.456,0,0,1,1.26-.926,4.558,4.558,0,0,1,1.595-.353,6.821,6.821,0,0,1,3.862.995,3.726,3.726,0,0,1,1.505,1.7Z"/><path class="e" d="M1472.411,1034.766a2.635,2.635,0,0,0-1.913-1.676,2.393,2.393,0,0,0-1.164.014.975.975,0,0,0-.758.779.8.8,0,0,0,.261.853,5.017,5.017,0,0,0,1.023.668q.636.328,1.376.694a5.942,5.942,0,0,1,1.327.89,3.3,3.3,0,0,1,.876,1.264,3.034,3.034,0,0,1,.024,1.834,3.213,3.213,0,0,1-.842,1.586,3.512,3.512,0,0,1-1.39.836,5.1,5.1,0,0,1-1.7.226,8.289,8.289,0,0,1-1.771-.232,7.611,7.611,0,0,1-2.311-.958,4.7,4.7,0,0,1-1.63-1.829l2.292-1.295a5.349,5.349,0,0,0,.912,1.271,2.865,2.865,0,0,0,1.411.751,2.969,2.969,0,0,0,.646.083,2.1,2.1,0,0,0,.664-.084,1.526,1.526,0,0,0,.555-.3.987.987,0,0,0,.312-.53.97.97,0,0,0-.232-.969,4.045,4.045,0,0,0-1.008-.729q-.636-.339-1.379-.682a5.7,5.7,0,0,1-1.338-.843,3.143,3.143,0,0,1-.889-1.217,2.883,2.883,0,0,1-.035-1.786,3.371,3.371,0,0,1,.78-1.529,3.482,3.482,0,0,1,1.289-.882,4.48,4.48,0,0,1,1.6-.3,6.809,6.809,0,0,1,1.707.192,6.878,6.878,0,0,1,2.121.925,3.735,3.735,0,0,1,1.452,1.748Z"/><path class="e" d="M1478.109,1035.49l-2.291-.631.65-2.361,2.291.632.432-1.573a12.823,12.823,0,0,1,.739-2.05,4.282,4.282,0,0,1,1.056-1.44,3,3,0,0,1,1.545-.682,5.418,5.418,0,0,1,2.2.222,9.294,9.294,0,0,1,1.713.645l-.834,2.31c-.188-.1-.371-.193-.547-.275a3.532,3.532,0,0,0-.566-.2,2.022,2.022,0,0,0-.977-.07,1.455,1.455,0,0,0-.679.347,1.876,1.876,0,0,0-.457.659,6.485,6.485,0,0,0-.3.864l-.555,2.013,2.569.707-.65,2.359-2.568-.707-2.409,8.747-2.777-.766Z"/><path class="e" d="M1492.738,1049.315l-2.611-.819.553-1.762-.045-.015a4.043,4.043,0,0,1-1.641,1.058,3.683,3.683,0,0,1-2.365-.074,4.635,4.635,0,0,1-1.756-.941,3.491,3.491,0,0,1-.946-1.352,3.9,3.9,0,0,1-.253-1.6,6.618,6.618,0,0,1,.3-1.691l2.173-6.939,2.748.86-1.742,5.565c-.095.306-.187.65-.273,1.034a3.852,3.852,0,0,0-.09,1.129,2.1,2.1,0,0,0,.337,1.011,1.818,1.818,0,0,0,1.03.688,2.773,2.773,0,0,0,1.227.133,2.337,2.337,0,0,0,.973-.375,2.621,2.621,0,0,0,.727-.752,4.312,4.312,0,0,0,.468-1.011l1.879-6,2.748.861Z"/><path class="e" d="M1501.713,1033.238l2.721.949-5.97,17.133-2.72-.947Z"/><path class="e" d="M1514.968,1038.057l2.662,1.1-3.087,7.477.066.027a4.011,4.011,0,0,1,.735-.333,4.5,4.5,0,0,1,.969-.21,4.859,4.859,0,0,1,1.185.024,5.466,5.466,0,0,1,1.395.393,5.374,5.374,0,0,1,1.906,1.294,5.243,5.243,0,0,1,1.141,1.859,5.928,5.928,0,0,1,.322,2.209,6.79,6.79,0,0,1-.532,2.354,7.172,7.172,0,0,1-1.261,2.049,5.476,5.476,0,0,1-1.776,1.344,5.326,5.326,0,0,1-2.154.5,5.813,5.813,0,0,1-2.374-.475,5.473,5.473,0,0,1-1.924-1.314,3.705,3.705,0,0,1-.966-2.061l-.045-.019-.66,1.6-2.528-1.043Zm4.1,15.092a3.781,3.781,0,0,0,.285-1.284,3.282,3.282,0,0,0-.2-1.277,3.4,3.4,0,0,0-4.592-1.9,3.246,3.246,0,0,0-1.042.765,3.719,3.719,0,0,0-.707,1.11,3.758,3.758,0,0,0-.284,1.286,3.257,3.257,0,0,0,.2,1.276,3.409,3.409,0,0,0,4.593,1.9,3.259,3.259,0,0,0,1.041-.763A3.748,3.748,0,0,0,1519.069,1053.149Z"/><path class="e" d="M1531.353,1065.07l-2.479-1.158.783-1.674-.043-.021a4.057,4.057,0,0,1-1.765.83,3.689,3.689,0,0,1-2.335-.391,4.617,4.617,0,0,1-1.616-1.165,3.531,3.531,0,0,1-.757-1.468,3.956,3.956,0,0,1-.036-1.62,6.655,6.655,0,0,1,.526-1.633l3.082-6.587,2.609,1.219-2.471,5.284q-.2.433-.41.987a3.839,3.839,0,0,0-.239,1.106,2.1,2.1,0,0,0,.2,1.047,1.82,1.82,0,0,0,.929.819,2.754,2.754,0,0,0,1.2.3,2.314,2.314,0,0,0,1.013-.241,2.582,2.582,0,0,0,.821-.649,4.128,4.128,0,0,0,.6-.94l2.666-5.695,2.607,1.221Z"/><path class="e" d="M1543.408,1061.888a2.633,2.633,0,0,0-1.465-2.08,2.41,2.41,0,0,0-1.134-.261.976.976,0,0,0-.92.578.808.808,0,0,0,.053.892,5.078,5.078,0,0,0,.836.89q.542.468,1.173,1a5.935,5.935,0,0,1,1.08,1.178,3.285,3.285,0,0,1,.557,1.436,3.064,3.064,0,0,1-.41,1.787,3.221,3.221,0,0,1-1.194,1.343,3.48,3.48,0,0,1-1.546.485,5.141,5.141,0,0,1-1.7-.178,8.391,8.391,0,0,1-1.666-.644,7.633,7.633,0,0,1-2.021-1.475,4.672,4.672,0,0,1-1.152-2.162l2.531-.719a5.431,5.431,0,0,0,.588,1.451,2.879,2.879,0,0,0,1.194,1.063,3.134,3.134,0,0,0,.608.232,2.039,2.039,0,0,0,.664.073,1.453,1.453,0,0,0,.61-.158,1,1,0,0,0,.43-.44.977.977,0,0,0,0-1,4.032,4.032,0,0,0-.808-.944c-.359-.32-.75-.648-1.179-.987a5.822,5.822,0,0,1-1.1-1.136,3.146,3.146,0,0,1-.578-1.392,2.88,2.88,0,0,1,.388-1.744,3.376,3.376,0,0,1,1.115-1.3,3.486,3.486,0,0,1,1.463-.555,4.488,4.488,0,0,1,1.631.085,6.777,6.777,0,0,1,3.457,1.987,3.735,3.735,0,0,1,1,2.042Z"/><path class="e" d="M1549.049,1061.3l2.521,1.389-5.556,10.09-2.523-1.388Zm1.529-3.624a1.655,1.655,0,0,1,1.037-.814,1.776,1.776,0,0,1,1.394.18,1.908,1.908,0,0,1,.93,1.073,1.685,1.685,0,0,1-1.193,2.165,1.9,1.9,0,0,1-1.4-.211,1.768,1.768,0,0,1-.9-1.084A1.657,1.657,0,0,1,1550.578,1057.671Z"/><path class="e" d="M1554.684,1064.393l2.352,1.4-.942,1.589.041.025a4.019,4.019,0,0,1,1.839-.653,3.689,3.689,0,0,1,2.285.616,4.541,4.541,0,0,1,1.487,1.326,3.712,3.712,0,0,1,.61,1.536,3.8,3.8,0,0,1-.114,1.6,6.723,6.723,0,0,1-.683,1.576l-3.71,6.255-2.477-1.47,2.975-5.015q.244-.414.5-.944a3.825,3.825,0,0,0,.345-1.078,2.068,2.068,0,0,0-.1-1.068,1.826,1.826,0,0,0-.834-.9,2.773,2.773,0,0,0-1.165-.411,2.306,2.306,0,0,0-1.032.142,2.551,2.551,0,0,0-.881.566,4.218,4.218,0,0,0-.686.875l-3.207,5.41-2.478-1.47Z"/><path class="e" d="M1565,1078.578a2.938,2.938,0,0,0-.26,2.239,3.157,3.157,0,0,0,1.355,1.745,3.435,3.435,0,0,0,1.76.622,5.061,5.061,0,0,0,1.684-.233l.874,2.436a5.861,5.861,0,0,1-2.859.252,6.645,6.645,0,0,1-2.478-.991,6.873,6.873,0,0,1-1.813-1.7,5.715,5.715,0,0,1-1.068-4.44,6.518,6.518,0,0,1,2.718-4.158,5.72,5.72,0,0,1,4.495-.8,6.881,6.881,0,0,1,2.286.978,5.6,5.6,0,0,1,1.609,1.553,4.712,4.712,0,0,1,.762,1.946,5.562,5.562,0,0,1-.147,2.242,8.261,8.261,0,0,1-1.132,2.457l-.433.662Zm6.125,1.423a2.719,2.719,0,0,0,.434-2.11,2.975,2.975,0,0,0-1.388-1.782,2.8,2.8,0,0,0-2.124-.5,3.311,3.311,0,0,0-1.863,1.162Z"/><path class="e" d="M1581.654,1085.6a2.63,2.63,0,0,0-1.156-2.264,2.409,2.409,0,0,0-1.087-.42.98.98,0,0,0-.992.443.807.807,0,0,0-.073.891,4.944,4.944,0,0,0,.7,1q.468.54,1.02,1.153a5.88,5.88,0,0,1,.9,1.319,3.275,3.275,0,0,1,.347,1.5,3.025,3.025,0,0,1-.658,1.713,3.183,3.183,0,0,1-1.369,1.16,3.473,3.473,0,0,1-1.6.263,5.146,5.146,0,0,1-1.663-.416,8.512,8.512,0,0,1-1.558-.873,7.625,7.625,0,0,1-1.793-1.745,4.693,4.693,0,0,1-.837-2.3l2.608-.355a5.429,5.429,0,0,0,.377,1.52,2.863,2.863,0,0,0,1.033,1.218,3.1,3.1,0,0,0,.571.318,2.081,2.081,0,0,0,.646.165,1.474,1.474,0,0,0,.625-.071,1.075,1.075,0,0,0,.63-1.363,4.067,4.067,0,0,0-.667-1.049c-.309-.366-.651-.748-1.029-1.142a5.821,5.821,0,0,1-.93-1.28,3.128,3.128,0,0,1-.375-1.459,2.863,2.863,0,0,1,.628-1.673,3.36,3.36,0,0,1,1.29-1.131,3.492,3.492,0,0,1,1.524-.344,4.509,4.509,0,0,1,1.6.315,6.786,6.786,0,0,1,3.143,2.455,3.725,3.725,0,0,1,.7,2.161Z"/><path class="e" d="M1590.3,1092.068a2.633,2.633,0,0,0-1.08-2.3,2.388,2.388,0,0,0-1.073-.455.973.973,0,0,0-1.005.41.806.806,0,0,0-.1.886,5.075,5.075,0,0,0,.668,1.024q.453.554.982,1.185a5.97,5.97,0,0,1,.859,1.35,3.293,3.293,0,0,1,.3,1.509,3.042,3.042,0,0,1-.715,1.688,3.216,3.216,0,0,1-1.409,1.115,3.5,3.5,0,0,1-1.607.208,5.081,5.081,0,0,1-1.647-.473,8.4,8.4,0,0,1-1.53-.924,7.665,7.665,0,0,1-1.732-1.8,4.7,4.7,0,0,1-.758-2.329l2.619-.266a5.3,5.3,0,0,0,.327,1.531,2.856,2.856,0,0,0,.988,1.254,3.114,3.114,0,0,0,.56.336,2.1,2.1,0,0,0,.641.187,1.471,1.471,0,0,0,.627-.051,1.074,1.074,0,0,0,.676-1.339,4.075,4.075,0,0,0-.631-1.073q-.445-.565-.99-1.175a5.787,5.787,0,0,1-.886-1.311,3.128,3.128,0,0,1-.327-1.471,2.873,2.873,0,0,1,.685-1.65,3.369,3.369,0,0,1,1.327-1.088,3.487,3.487,0,0,1,1.536-.292,4.55,4.55,0,0,1,1.59.368,6.811,6.811,0,0,1,3.059,2.561,3.729,3.729,0,0,1,.628,2.183Z"/></g></g></g><g transform="matrix(0.946, -0.326, 0.326, 0.946, -828.04, 460.087)"><path class="f" d="M123.973,0a10,10,0,0,1,8.663,5l37.483,65a10,10,0,0,1,0,9.991l-37.483,65a10,10,0,0,1-8.663,5H49.027a10,10,0,0,1-8.663-5L2.881,80a10,10,0,0,1,0-9.991L40.364,5a10,10,0,0,1,8.663-5Z" transform="translate(1090 927.265)"/><text class="g" transform="translate(1177 989.265)"><tspan x="-54.684" y="0">Hardware</tspan><tspan x="-67.8" y="32">Engineering</tspan></text></g><g transform="matrix(0.788, 0.616, -0.616, 0.788, -354.659, -915.952)"><path class="f" d="M73.337,4.263a10,10,0,0,1,11.747,0l67.452,48.952A10,10,0,0,1,156.172,64.4l-25.76,79.192a10,10,0,0,1-9.51,6.907H37.519a10,10,0,0,1-9.51-6.907L2.249,64.4A10,10,0,0,1,5.885,53.215Z" transform="translate(1511.579 715.265)"/><text class="g" transform="translate(1590.79 791.265)"><tspan x="-51.096" y="0">Business </tspan><tspan x="-48.012" y="32">Strategy</tspan></text></g><g transform="matrix(0.574, 0.819, -0.819, 0.574, 6275.695, -5260.617)"><path class="f" d="M63,0h89a61,61,0,0,1,61,61v2a63,63,0,0,1-63,63H63A63,63,0,0,1,0,63v0A63,63,0,0,1,63,0Z" transform="translate(1596 8362)"/><text class="g" transform="translate(1702.5 8416.5)"><tspan x="-91.764" y="0">Web / Software </tspan><tspan x="-75.996" y="32">Development</tspan></text></g><g transform="matrix(0.875, -0.485, 0.485, 0.875, -1139.618, 758.472)"><path class="f" d="M77.342,14.978a10,10,0,0,1,17.315,0l68.669,118.8a10,10,0,0,1-8.658,15H17.331a10,10,0,0,1-8.658-15Z" transform="translate(1661 912.265) rotate(90)"/><text class="g" transform="translate(1562.79 991.765)"><tspan x="-39.12" y="0">Mobile</tspan><tspan x="-29.112" y="28">Apps</tspan></text></g><g transform="translate(-599.892 -281.354) rotate(16)"><rect class="f" width="150" height="150" rx="10" transform="translate(1301 715.265)"/><text class="g" transform="translate(1376 781.765)"><tspan x="-70.248" y="0">Marketing &amp;</tspan><tspan x="-50.916" y="32">Branding</tspan></text></g><g transform="translate(-248.5 -38.265)"><rect class="a" width="150" height="150" rx="75" transform="translate(1301 715.265)"/><text class="b" transform="translate(1376 782.265)"><tspan x="-40.656" y="0">UI / UX</tspan><tspan x="-38.892" y="32">Design</tspan></text></g><g transform="translate(72.873 -7730.192)"><rect class="f" width="150" height="150" rx="75" transform="translate(492 8350)"/><text class="g" transform="translate(567 8416.5)"><tspan x="-40.656" y="0">UI / UX</tspan><tspan x="-38.892" y="32">Design</tspan></text></g></g></svg>