<svg xmlns="http://www.w3.org/2000/svg" width="62.674" height="51" viewBox="0 0 62.674 51"><defs><style>.a{fill:#fff;}</style></defs><path class="a" d="M64.087,10.543A26,26,0,0,1,56.7,12.575,12.9,12.9,0,0,0,62.36,5.456a25.55,25.55,0,0,1-8.168,3.121,12.854,12.854,0,0,0-22.246,8.792,12.588,12.588,0,0,0,.332,2.935A36.44,36.44,0,0,1,5.769,6.851a12.884,12.884,0,0,0,4,17.186A12.559,12.559,0,0,1,3.923,22.43v.159A12.87,12.87,0,0,0,14.243,35.206a12.944,12.944,0,0,1-3.387.452,12.13,12.13,0,0,1-2.417-.239,12.879,12.879,0,0,0,12.019,8.938A25.78,25.78,0,0,1,4.481,49.868a26.064,26.064,0,0,1-3.068-.186A35.941,35.941,0,0,0,21.1,55.5c23.68,0,36.616-19.616,36.616-36.629,0-.558-.013-1.116-.04-1.66A26.175,26.175,0,0,0,64.087,10.543Z" transform="translate(-1.413 -4.5)"/></svg>