<svg xmlns="http://www.w3.org/2000/svg" width="273" height="273" viewBox="0 0 273 273"><defs><style>.a{fill:#f6a833;}.b{fill:none;stroke:#52330d;stroke-miterlimit:10;stroke-width:2px;}</style></defs><g transform="translate(-3323 -1290)"><g transform="translate(578)"><rect class="a" width="273" height="273" rx="15" transform="translate(2745 1290)"/></g><g transform="translate(290)"><g transform="translate(3088.855 1392)"><path class="b" d="M-2630.256,1542.649l-47.333,29.047c-.275.184-.553.362-.834.537l-.208.128a33.63,33.63,0,0,1-17.681,4.994A34.687,34.687,0,0,1-2731,1542.668a34.687,34.687,0,0,1,34.687-34.687,31.086,31.086,0,0,1,11.574,1.977,34.022,34.022,0,0,1,6.234,3.137l21.746,13.311Z" transform="translate(2731 -1507.978)"/><path class="b" d="M-1883.4,1542.687a34.687,34.687,0,0,1-34.687,34.687,34.533,34.533,0,0,1-19.878-6.256l-.007,0c-.143-.1-.285-.2-.427-.3v.018l-46.012-28.173,46.791-28.636a34.526,34.526,0,0,1,19.534-6.018A34.687,34.687,0,0,1-1883.4,1542.687Z" transform="translate(2085.177 -1507.997)"/></g><g transform="translate(3048.365 1392)"><path class="b" d="M-2930.256,1542.649l-47.334,29.047c-.275.184-.553.362-.834.537l-.208.128a33.63,33.63,0,0,1-17.681,4.994A34.687,34.687,0,0,1-3031,1542.668a34.687,34.687,0,0,1,34.687-34.687,31.087,31.087,0,0,1,11.574,1.977,34.014,34.014,0,0,1,6.234,3.137l21.746,13.311Z" transform="translate(3031 -1507.978)"/><path class="b" d="M-2183.4,1542.687a34.687,34.687,0,0,1-34.687,34.687,34.532,34.532,0,0,1-19.878-6.256l-.007,0q-.215-.15-.427-.3v.018l-46.012-28.173,46.791-28.636a34.526,34.526,0,0,1,19.534-6.018A34.687,34.687,0,0,1-2183.4,1542.687Z" transform="translate(2385.177 -1507.997)"/></g></g></g></svg>