<svg xmlns="http://www.w3.org/2000/svg" width="527.063" height="297.557" viewBox="0 0 527.063 297.557"><defs><style>.a{fill:#fff;}</style></defs><g transform="translate(-1403.269 -1818.149)"><path class="a" d="M1782.523,1978.824c-14.306-5.251-28.616-5.769-42.974-.147a46.33,46.33,0,0,0-13.514,8.665c-1.5,1.314-3.078,3.2-5.229,1.615-2.206-1.626-.688-3.736.095-5.484a84.9,84.9,0,0,0,4.579-12.907c3.192-11.991-1.284-22.488-6.02-33-4.321-9.6-11.425-17.617-15.3-28.036-7.284,12.027-16.133,22.216-23.272,33.6a39.509,39.509,0,0,0-5.616,18.346,112.875,112.875,0,0,0,.377,21.383c.2,1.7.8,3.66-.967,4.843s-3.382-.2-4.856-.982a29.686,29.686,0,0,1-5.767-3.694c-11.928-10.473-25.271-9.8-39.065-4.981-6.4,2.235-11.416,7.073-17.511,9.941-1.091.514-2.169,1.057-3.254,1.586-1.109-1.738-2.931-.962-4.447-1.263,7.037-4.712,13.136-10.964,20.954-14.327,15.443-6.644,30.64-6.359,45,3.384.957.649,1.956,1.9,3.209,1.216,1.316-.722.565-2.189.455-3.308-.851-8.746.9-17.17,3.317-25.46,2.991-10.252,9.951-18.036,16.574-26.039,5.353-6.469,12.124-12.068,13.637-21.062.149-.884.688-2.022,1.844-1.728,1.008.257,1.1,1.433,1.22,2.37.822,6.339,3.74,11.74,7.451,16.8,3.028,4.128,6.162,8.187,9.006,12.44,8.875,13.268,13.852,27.371,8.751,43.48-.037.117.278.346.429.522,17.273-10.539,34.654-11.347,52.178-.662C1785.165,1977.692,1785.278,1978.895,1782.523,1978.824Z" transform="translate(-37.456 -15.78)"/><path class="a" d="M1437.337,2127.631c0-11.833.033-23.25-.026-34.666-.012-2.337-.595-4.576,3.143-4.434,4.69.18,6.283,1.182,6,4.984-1.151,15.616-.7,31.243-.567,46.873.015,1.8,1.845,4.7-1.428,5.414-3.088.671-6.259.349-8.164-2.868q-4.841-8.165-9.635-16.357c-4.584-7.86-9.136-15.739-14.49-23.421-.051,1.121-.179,2.245-.142,3.362.415,12.242,0,24.523,1.6,36.71.189,1.429.093,2.337-1.588,2.51-2.681.275-5.509.943-7.11-2.1a7.023,7.023,0,0,1-.494-3.163c-.005-16.555,1.283-33.138-1.138-49.635-.208-1.416.432-1.806,1.684-2.126,4.181-1.069,8.079.241,10.969,4.087,6.812,9.064,12.437,18.878,17.967,28.746C1435.028,2123.515,1436.13,2125.477,1437.337,2127.631Z" transform="translate(0 -51.503)"/><path class="a" d="M1592.914,1887.734a52.767,52.767,0,0,0-.439-16.871c-.189-1.171-.539-2.672.6-3.389,1.314-.825,2.26.558,3,1.368,5.577,6.125,12.156,6.081,19.245,3.328,2.886-1.121,5.876-2.009,8.68-3.3a22.579,22.579,0,0,1,19.908.213c1.2.557,2.565,1.49,2.927-.9,1.56-10.272,9-15.5,17.3-19.849a57.927,57.927,0,0,1,14.415-5.152c12.2-2.7,20.618-9.456,23.983-21.856.317-1.168.133-3.256,1.815-3.178,1.6.074,1.51,2.076,1.577,3.307.618,11.466,8.786,17.461,19.256,18.617,5.867.648,11.8,1.026,17.521,2.825a22.637,22.637,0,0,1,15.358,22.185c-.07,1.344-.073,2.692-.107,4.037-.2,1.428.5,3.051-.755,4.5-1.61-1.718-.149-3.883-1.411-5.373-1.308-11.816-8.342-18.481-19.411-21.425a51.244,51.244,0,0,0-6.752-1.16c-9.229-1.165-17.5-4.228-23.492-11.794-1.371-1.732-2.4-1.341-3.38.244-4.092,6.593-10.588,9.062-17.722,10.787-9.189,2.221-18.1,5.213-25.5,11.511-8.647,7.362-11.483,19.726-6.7,29.485,0,1.5-.3,2.743-2.231,2.558a61.483,61.483,0,0,1-3.9-12.17c-.544-2.271-2.1-3.506-4.43-4.181a21.924,21.924,0,0,0-18.18,2.546,23.8,23.8,0,0,1-22.427,1.659c-3.794-1.571-5.256-.483-5.1,3.7.138,3.594-.216,6.97-2.153,10.068C1592.869,1889.965,1592.942,1888.818,1592.914,1887.734Z" transform="translate(-36.025)"/><path class="a" d="M1993.753,2110.785c-.271,9.54-1.161,19.1.112,28.629.187,1.4,1.593,3.43-.262,4.367-2.179,1.1-5.207,1.511-6.914-.208-2.21-2.228-3.624-1.369-5.742-.28-8.164,4.2-17.485.561-21.678-8.565a25.145,25.145,0,0,1-.347-21.139c3.775-8.781,12.437-13.005,21.51-10.135,3.87,1.225,4.217-.061,3.975-3.284-.372-4.962-.522-9.942-.7-14.916-.071-2.049-1.395-4.659,2.55-4.9,4.479-.267,7.429,1.154,7.625,4.608.206,3.617-.1,7.261-.126,10.895C1993.729,2100.835,1993.753,2105.81,1993.753,2110.785Zm-9.4,12.456h-.074c0-3.368.01-6.735-.006-10.1-.006-1.2.036-2.314-1.339-3.078-4.02-2.232-10.415-1.276-13.414,2.155-5.068,5.8-3.938,19.642,2.012,24.549,2.837,2.34,5.914,2.162,9.111.865,3.064-1.241,4.12-3.45,3.766-6.716A71.469,71.469,0,0,1,1984.354,2123.241Z" transform="translate(-105.497 -49.972)"/><path class="a" d="M1696.6,2146.615c-2.712.026-4.663-1.069-5.606-3.724-1.35-3.8-2.84-7.56-4.055-11.4-.666-2.107-1.644-3.059-4-2.927a66.7,66.7,0,0,1-11.3-.025c-4.066-.467-6.186.93-7.259,4.831-1.032,3.749-2.788,7.3-3.755,11.066-.91,3.539-3.05,3.1-5.519,2.384-2.657-.776-3.808-2.254-2.618-5.122,3.865-9.318,7.743-18.633,11.42-28.026,2.645-6.757,4.974-13.637,7.449-20.46.732-2.018.58-4.536,4.062-4.4,3.406.129,6.042.684,7.226,4.354q3.594,11.131,7.425,22.185c3.042,8.772,6.508,17.382,10.248,25.879C1702.1,2145.268,1701.222,2146.585,1696.6,2146.615Zm-27.451-24.327c4.318,0,8.189-.013,12.058.006,1.638.008,2.109-.62,1.574-2.231-2.024-6.087-3.968-12.2-6.19-19.073Z" transform="translate(-47.413 -51.587)"/><path class="a" d="M2045.258,2129.569c-.052,5.663-.241,11.359,1.1,16.9.575,2.367-.432,2.792-2.261,3.1-2.348.4-4.88.561-6.41-1.344-1.433-1.786-2.375-1.778-4.016-.564a15.641,15.641,0,0,1-7.981,2.582,11.092,11.092,0,0,1-12.532-9.416c-1.262-6.732,1.551-11.537,7.913-13.423a42.561,42.561,0,0,1,11.992-1.517c2.342-.01,3.174-.886,2.89-3.123-.4-3.138.153-6.734-3.74-8.223-3.457-1.323-7.392.312-10.127,4.056a4.774,4.774,0,0,1-7.432.815c-2.417-2.283-1.64-4.6.323-6.724,5.029-5.433,20.276-6.678,26.183-2.1a10.784,10.784,0,0,1,4.063,8.477C2045.371,2122.559,2045.258,2126.066,2045.258,2129.569Zm-9.549,7.046c-.009-5.775-.011-5.782-5.7-4.645-1.177.236-2.351.506-3.507.829-3.561,1-4.536,3.557-3.807,6.854.715,3.233,3.107,4.588,6.233,4.574C2033.745,2144.2,2035.718,2141.912,2035.71,2136.615Z" transform="translate(-116.191 -55.204)"/><path class="a" d="M1614.262,2131.185c.053,4.7-.52,9.483.782,14.068,1.036,3.649-.782,4.533-3.74,4.494-1.312-.018-3.332-.055-3.8-.831-2.294-3.758-4.4-1.349-6.761-.277-4.629,2.1-9.385,2.6-13.905-.229-4.464-2.793-5.14-7.239-4.817-12.057a9.014,9.014,0,0,1,6.058-8.273c4.322-1.79,8.908-2.108,13.478-2.149,2.743-.023,3.615-1.1,3.265-3.622-.418-3.014-.111-6.424-3.8-7.779-3.343-1.229-7.582.27-9.837,3.795-1.244,1.943-2.407,3.131-4.8,2.4-1.843-.567-3.68-1.18-4.168-3.349-.546-2.424.715-4.156,2.473-5.578,5.206-4.216,18.166-5.325,23.98-2.1,4.346,2.409,5.28,6.6,5.547,10.992C1614.431,2124.172,1614.262,2127.684,1614.262,2131.185Zm-9.574,5.5c-.006-5.857,0-5.833-5.731-4.732a17.411,17.411,0,0,0-5.01,1.477,4.686,4.686,0,0,0-2.673,5.339,6.057,6.057,0,0,0,6.778,5.466C1602.767,2143.959,1604.693,2141.768,1604.688,2136.688Z" transform="translate(-34.056 -55.213)"/><path class="a" d="M1550.878,2138.521c3.635-9.423,6.129-18.032,6.5-27.106.105-2.583.792-3.69,3.45-3.569,2.686.124,5.315.083,5.474,3.764.125,2.884-.762,5.589-1.532,8.306a161.78,161.78,0,0,1-20.82,45.752c-1.191,1.792-2.409,3.606-4.383,4.646-2.85,1.5-4.908-.019-6.754-1.968-2.2-2.326.342-3.281,1.492-4.425,11.59-11.519,11.817-12.176,6.13-27.624-2.971-8.071-5.673-16.294-10.635-23.467-.894-1.292-.758-2,.6-2.885,3.263-2.14,8.1-2.755,10.285,2.473C1544.151,2120.723,1547.468,2129.075,1550.878,2138.521Z" transform="translate(-24.009 -55.215)"/><path class="a" d="M1731.408,2138.2a76.56,76.56,0,0,0,6.542-26.5c.183-3.562,1.461-3.947,4.261-3.882,3.106.072,4.967,1.221,4.641,4.572a64.4,64.4,0,0,1-3.637,14.448c-4.878,14.326-11.1,28-19.872,40.406-3.044,4.305-6.268,4.735-9.385,1.692-1.439-1.4-2.065-2.444-.06-4.177,3.883-3.353,6.855-7.55,9.823-11.733a6.607,6.607,0,0,0,.874-6.765c-4.295-11.437-7.657-23.266-14.352-33.675-.562-.875-.9-1.4.136-2.322,3.766-3.354,8.625-2.611,10.7,1.972,3.38,7.476,6.436,15.091,9.088,22.861C1730.463,2135.974,1730.851,2136.818,1731.408,2138.2Z" transform="translate(-58.409 -55.211)"/><path class="a" d="M1764.977,2126.868c.1-5.248.454-10.521-.667-15.707-.326-1.51.1-2.223,1.7-2.448,5.461-.769,9.064-.049,8.626,6.372-.448,6.582-.368,13.2-.427,19.806-.029,3.308.256,6.688,3.718,8.345,3.572,1.71,6.8.257,9.873-1.676a4.222,4.222,0,0,0,2.239-3.967c-.173-8.354-.177-16.71-.446-25.06-.072-2.24-.319-4.219,2.688-4.11,2.836.1,6.471-.693,6.931,3.584a65.322,65.322,0,0,1-.152,9.286,148,148,0,0,0,.619,23.417c.185,1.513,1.974,3.487-.5,4.563-2.307,1-5.316,1.353-6.782-.683-1.971-2.739-3.387-1.837-5.4-.553a17.7,17.7,0,0,1-9.276,2.437c-8.119.2-12.606-4.179-12.735-12.287C1764.928,2134.416,1764.977,2130.641,1764.977,2126.868Z" transform="translate(-68.796 -55.327)"/><path class="a" d="M1920.475,2132.661c-1.307.546-3.777-1.573-4.725.7-.844,2.023.639,4.162,1.784,5.974a10.416,10.416,0,0,0,15.238,2.45c2.41-1.954,4.168-2.3,5.7.4,1.593,2.8.385,5.049-2.408,6.185a23.908,23.908,0,0,1-16.983.756c-11.343-3.777-16.449-15.45-12.344-28.1,3.206-9.884,14.634-15.562,24.877-12.36,5.8,1.812,9.248,6.554,9,12.375-.247,5.859-3.192,9.085-9.709,10.616A53.159,53.159,0,0,1,1920.475,2132.661Zm-.619-5.928c2.548-.094,5.08-.128,7.505-1.19,3.064-1.341,4.256-3.631,3.608-6.8-.672-3.281-3.024-4.6-6.188-4.61-4.071-.014-7.3,2.594-8.825,7.022C1914.094,2126.558,1914.294,2126.844,1919.856,2126.733Z" transform="translate(-95.694 -55.201)"/><path class="a" d="M1777.518,2043.354c12.518,1.4,22.345-4.334,31.281-12.072,7.811-6.764,15.366-13.834,24.883-18.239,2.591-1.2,1.991-2.454.137-3.7-2.561-1.717-5.182-3.344-7.778-5.009.767-1.438,2.211-1.386,3.533-1.6,4.619,2.159,9.014,4.806,13.992,6.192,1.478.412,3.87.509,3.957,2.2.111,2.152-2.514,2-3.989,2.569-13.094,5.092-23.427,14.109-33.6,23.376-1.585,1.444-1.041,2.1.807,2.556,5.14,1.272,9.765,3.8,14.447,6.159a52.222,52.222,0,0,0,16.457,5.244c10.442,1.438,23.4-.958,28.878-15.727a37.612,37.612,0,0,1,14.47-17.931l.292,1.336c-5.9,5.593-9.517,12.719-12.67,19.975-5.249,12.08-14.945,16.206-27.173,16.326a35.6,35.6,0,0,1-15.533-3.72,62.744,62.744,0,0,0-36.53-5.482,43.946,43.946,0,0,1-18.382-.9C1775.147,2043.274,1776.44,2043.488,1777.518,2043.354Z" transform="translate(-70.853 -35.183)"/><path class="a" d="M1793.084,1879.521c1.262,1.49-.2,3.655,1.411,5.373,1.257-1.448.551-3.071.755-4.5,1,.821,1.669,1.757,3.311.5,6.368-4.878,13.3-4.238,20.282-1.452a53.581,53.581,0,0,1,9.632,5.057c7.954,5.245,16.344,5.57,25.051,2.179.5-.195.964-.489,1.469-.668,1.184-.421,2.458-.695,3.283.527.878,1.3.014,2.3-.953,3.115a21.028,21.028,0,0,0-4.711,5.99c-2.938,5.275-3.562,10.648-.715,16.179.307.6.56,1.222.849,1.828,4.574,9.618,7.447,11.346,1.649,26.089,14.14.242,23.332,7.408,28.393,20.3-.11,1.238-.351,2.54,1.425,2.826a.557.557,0,0,1,.22.526c-.521,1.036-1.47,1.1-2.455,1.079-2.044-2.671-4.009-5.409-6.147-8-9.033-10.954-16.432-13.516-28.145-9.846-1.142.073-2.173-.017-2.247-1.522,8.011-8.049,10.264-17.646,5.323-27.028-4.29-8.145-6.455-15.924-1.069-24.3.988-1.536.326-2.18-1.378-2.135-1.2.031-2.406-.058-3.61-.107-5.111-.207-10.288,1.1-15.274-1.441-5.023-2.562-10.2-4.861-15.445-6.943-6.966-2.766-12.038-1.14-16.745,4.788a28.248,28.248,0,0,0-3.525,6.763c-.98,2.289-2,4.607-5.778,6.1C1790.6,1893.251,1794.144,1886.848,1793.084,1879.521Z" transform="translate(-73.319 -11.272)"/><path class="a" d="M1708.679,2042.985c-4.367-2.773-7.855-4.281-11.924-2.359-3.859,1.821-5.6,5.11-4.219,8.39,1.44,3.422,5.99,4.927,9.658,3.035,2.66-1.373,4.7-3.566,6.806-5.66,5.076-5.047,10.257-9.95,17.31-12.221,6.727-2.167,12.519-.073,17.672,4.11,3.281,2.663,3.53,7.191,1.133,11.463-4.755,8.473-18.135,11.09-25.476,4.944a8.95,8.95,0,0,1-1.7-2.2,1.6,1.6,0,0,1,.14-2.188c.644-.509,1.166.275,1.742.564,5.332,2.67,10.658,3.419,15.864-.3,3.994-2.855,5.2-6.642,3.261-10.059a8.388,8.388,0,0,0-10.909-3.2c-6.785,3.256-12.088,8.509-17.4,13.657a21.643,21.643,0,0,1-17.987,6.442c-4.978-.478-8.637-3-9.909-7-1.471-4.629.952-7.848,4.065-10.606,6.309-5.588,17.049-5.16,20.965.689A16.619,16.619,0,0,1,1708.679,2042.985Z" transform="translate(-53.184 -41.009)"/><path class="a" d="M1873.922,2138.671c4.164-8.5,6.827-17.329,6.9-26.691.031-4.077,1.857-4.281,4.865-4.133,3.4.169,4.563,2.093,4.05,5.108a84.926,84.926,0,0,1-12.209,32.2,9.5,9.5,0,0,1-4.826,4.116c-4.187,1.46-6.1.446-7.214-3.755-3.006-11.312-6.022-22.631-11.948-32.873-.832-1.438-.443-2.076.747-2.915,4.116-2.9,7.977-2.073,9.761,2.623,2.957,7.786,5.565,15.7,8.288,23.576A4.281,4.281,0,0,0,1873.922,2138.671Z" transform="translate(-85.738 -55.211)"/><path class="a" d="M1497.107,2125.834c0-1.886,0-3.773,0-5.659.013-6.321.016-6.346-6.125-6.76-1.014-.069-1.9.017-1.931-1.36-.043-1.906-.254-4.639,2.01-4.641,5.876-.006,6.832-2.84,5.544-7.692-.108-.41.195-1.291.5-1.393a11.521,11.521,0,0,1,7.495.018c2.023.683,2.4,2.46,2.1,4.311-.547,3.358.67,4.7,4.11,4.161a39.876,39.876,0,0,1,5.246-.191c1.489-.033,3.419-1.005,3.709,1.642.25,2.275-.39,4.174-2.887,4.534a36.691,36.691,0,0,1-7.238.333c-2.524-.141-3.7.473-3.565,3.287.324,6.582-.636,13.212.467,19.764,1.02,6.068,3.876,7.367,9.283,4.42.817-.446,1.445-1.25,2.4-.181a4.025,4.025,0,0,1,1.21,4.038,4.5,4.5,0,0,1-2.689,2.8c-8.986,4.163-18.828-1.468-19.529-11.335-.238-3.351-.037-6.733-.037-10.1Z" transform="translate(-16.345 -53.285)"/><path class="a" d="M1596.54,2008.885c1.517.3,3.339-.475,4.448,1.262-2.183,2.136-6.865,2.3-6.974,5.2-.065,1.729,4.189,3.572,6.43,5.449a51.087,51.087,0,0,1,5.06,4.627c12.175,13.369,27.947,17.36,45.227,17.481,1.845.014,3.691,0,6.624,0-4.9,3.844-9.718,4.975-14.551,5.828-4.751.839-9.53,1.309-14.09-1.286-1.853-1.054-3.919.123-5.868.5a1.81,1.81,0,0,1-1.014-1.731c.4-1.7.385-1.679-2.381-3.588-11.9-8.215-22.054-18.787-34.831-25.831-.908-.5-1.946-1.248-1.837-2.462.133-1.481,1.512-1.8,2.654-2.046A59.947,59.947,0,0,0,1596.54,2008.885Z" transform="translate(-34.214 -36.355)"/><path class="a" d="M1830.656,2113.011c3.342-2.962,6.126-5.631,10.352-5.111,2.622.322,4.626,1.586,3.616,4.479-.748,2.144-.67,5.716-5.1,4.2a7.539,7.539,0,0,0-9.771,7.094c-.17,7.785-.587,15.6,1.5,23.247.2.732.657,1.67-.417,2.086a9.585,9.585,0,0,1-7.467.144c-2.2-.94-2.647-2.857-2.665-4.985-.09-11.022.447-22.057-.665-33.056-.17-1.687.384-2.386,2.144-2.526C1825.836,2108.294,1829.318,2108.123,1830.656,2113.011Z" transform="translate(-79.432 -55.215)"/><path class="a" d="M1533.558,2005.829a5.681,5.681,0,0,1-2.452-2.565q-.046-1.123-.091-2.246l1.583-.026c.136.778.426,1.411,1.356,1.441,10.128,6.074,12.993,16,13.794,26.781.544,7.323,4.108,12.266,10.278,15.762,7.2,4.079,15.1,5.481,23.163,6.343,3.511,3.093,7.017.926,10.525-.01l2.43-.158c1.2.251,2.9-.55,3.243,1.528-4.291.965-8.56,2.043-12.877,2.871a46.53,46.53,0,0,1-30.834-4.4c-6.029-3.1-8.942-8.191-9.7-14.8-.643-5.6-.985-11.232-2.314-16.742a30.6,30.6,0,0,0-5.726-11.412c-.089-.958.239-2.324-1.567-1.6l-.049-.051Z" transform="translate(-24.349 -34.851)"/><path class="a" d="M1723.884,2004.619c5.245-.023,8.41,3.624,7.1,8.7-1.66,6.43-5.752,11.759-8.675,17.62-1.081,2.169-3.086,1.588-4.852.4-4.494-3.026-8.235-12.665-6.931-17.95C1711.867,2007.942,1716.882,2004.65,1723.884,2004.619Z" transform="translate(-58.514 -35.542)"/><path class="a" d="M1479.308,2124.733a66.694,66.694,0,0,0,1.259,22.037c.474,1.961-.065,2.557-1.908,2.947-5.7,1.206-8.583-.9-8.7-6.687-.21-10.612.6-21.243-.564-31.835-.2-1.792.5-2.356,2.167-2.518,5.569-.54,9.645.765,8.214,7.612C1479.208,2119.017,1479.438,2121.914,1479.308,2124.733Z" transform="translate(-12.598 -55.355)"/><path class="a" d="M1546.89,1976.188c6.513-11.9,14.7-21.7,29.826-23.257-8.291-8.311-5.14-17.082-1.912-25.858,1.036.123,1.359.835,1.439,1.746a6.826,6.826,0,0,1-.791,3.86c-1.62,3.526-.844,6.8.91,10.156,2.74,5.239,7.083,8.708,11.911,11.754-1.528,3.191-4.427.825-6.547,1.615l-1.479-.013c-2.209.2-4.684-.914-6.481,1.314-.867.359-1.74.706-2.6,1.081-9.145,3.989-15.826,10.854-21.735,18.62C1548.454,1977.2,1547.456,1977.23,1546.89,1976.188Z" transform="translate(-27.374 -20.761)"/><path class="a" d="M1730.234,1980.28c-.493,4.122-1.174,9.081-4.9,12.886-2.83,2.89-5.457,2.665-7.618-.768-2.807-4.458-4.152-9.352-3.115-14.641.878-4.476,4.863-7.7,8.781-7.312C1727.588,1970.86,1730.291,1974.393,1730.234,1980.28Z" transform="translate(-59.274 -29.022)"/><path class="a" d="M1480.141,2095.212a6.036,6.036,0,0,1-6.332,5.879,5.834,5.834,0,0,1-6.063-6.108,6.407,6.407,0,0,1,6.366-6.013A6.1,6.1,0,0,1,1480.141,2095.212Z" transform="translate(-12.289 -51.619)"/><path class="a" d="M1904.125,1984.74c.985.02,1.934-.043,2.455-1.079,4.479,8.393,9.221,16.566,17.168,22.321,1.263.915,1.469,2.261-.447,3-1.46-.244-3.525.971-4-1.655a1.819,1.819,0,0,0-.686-2.136C1911.534,1999.966,1908.072,1992.182,1904.125,1984.74Z" transform="translate(-95.465 -31.547)"/><path class="a" d="M1582.817,1924.444c-.08-.911-.4-1.623-1.439-1.746,3.288-6.124,7.286-11.886,9.459-18.578.027,1.084-.045,2.231,1.5,2.343C1589.365,1912.564,1586.678,1918.815,1582.817,1924.444Z" transform="translate(-33.948 -16.386)"/><path class="a" d="M1612.253,2062.976c-.342-2.078-2.04-1.276-3.243-1.528,6.131-1.619,11.9-4.251,17.821-6.44a1.809,1.809,0,0,0,1.014,1.731A72.821,72.821,0,0,1,1612.253,2062.976Z" transform="translate(-39.215 -45.146)"/><path class="a" d="M1839.212,2000.992c-1.322.219-2.766.167-3.533,1.605l-10.121-6.112c2.753.07,2.64-1.132,1.28-2.887A75.628,75.628,0,0,1,1839.212,2000.992Z" transform="translate(-80.49 -33.441)"/><path class="a" d="M1543.983,1987.754c.567,1.042,1.564,1.008,2.542,1.017-2.8,4.539-7.1,6.791-12.135,7.914-.24-1.681-1.682-1.351-2.751-1.643C1536.435,1993.768,1541.146,1992.348,1543.983,1987.754Z" transform="translate(-24.468 -32.327)"/><path class="a" d="M1920.593,2012.9c.474,2.626,2.539,1.411,4,1.655-4.434,2.1-9.4,3.045-13.4,6.092-.1-.444-.193-.89-.291-1.335C1913.482,2016.192,1917.327,2014.983,1920.593,2012.9Z" transform="translate(-96.756 -37.12)"/><path class="a" d="M1776.036,2052.391c-1.078.134-2.371-.08-2.518,1.558-1.632-.479-3.275-.923-4.89-1.451-.742-.244-1.62-.635-1.352-1.615.3-1.079,1.213-.72,1.955-.5C1771.5,2051.037,1773.769,2051.718,1776.036,2052.391Z" transform="translate(-69.371 -44.219)"/><path class="a" d="M1727.775,1947.784c-.223,1.339-.822,2.155-2.081,2.1a1.852,1.852,0,0,1-1.89-2.065,1.7,1.7,0,0,1,1.8-1.7A2.076,2.076,0,0,1,1727.775,1947.784Z" transform="translate(-61.095 -24.39)"/><path class="a" d="M1612.107,2017.439a1.787,1.787,0,0,1-1.835,1.766,1.752,1.752,0,0,1-1.845-2.108,1.632,1.632,0,0,1,1.962-1.548A1.888,1.888,0,0,1,1612.107,2017.439Z" transform="translate(-39.102 -37.62)"/><path class="a" d="M1818.717,2017.285a1.853,1.853,0,0,1-1.928,1.668,1.68,1.68,0,0,1-1.778-1.776,1.7,1.7,0,0,1,2.058-1.858A1.894,1.894,0,0,1,1818.717,2017.285Z" transform="translate(-78.479 -37.577)"/><path class="a" d="M1631.462,2022.377a1.6,1.6,0,0,1-1.482-1.8c0-1.081.529-1.786,1.644-1.793a1.674,1.674,0,0,1,1.882,1.98C1633.416,2021.83,1632.716,2022.375,1631.462,2022.377Z" transform="translate(-43.212 -38.242)"/><path class="a" d="M1806.178,2018.179c1.086.3,1.994.8,1.848,2.144a1.681,1.681,0,0,1-1.861,1.66,1.823,1.823,0,0,1-1.88-2.088A1.887,1.887,0,0,1,1806.178,2018.179Z" transform="translate(-76.433 -38.126)"/><path class="a" d="M1795.681,2020.156c1.035.137,1.831.623,1.824,1.722a1.774,1.774,0,0,1-1.656,1.909,1.75,1.75,0,0,1-2-1.932C1793.872,2020.742,1794.657,2020.276,1795.681,2020.156Z" transform="translate(-74.446 -38.503)"/><path class="a" d="M1788.143,2022.952c-.038,1.249-.566,1.953-1.637,2.056a1.768,1.768,0,0,1-2.078-1.852,1.7,1.7,0,0,1,1.612-1.913A1.913,1.913,0,0,1,1788.143,2022.952Z" transform="translate(-72.65 -38.71)"/><path class="a" d="M1829.371,2014.643a1.681,1.681,0,0,1-1.906,1.582,1.612,1.612,0,0,1-1.757-1.729,1.833,1.833,0,1,1,3.663.147Z" transform="translate(-80.518 -37.08)"/><path class="a" d="M1671.61,2027.038c-1.027-.145-1.821-.613-1.816-1.734a1.733,1.733,0,0,1,2.041-1.887,1.772,1.772,0,0,1,1.619,1.949C1673.414,2026.474,1672.675,2026.974,1671.61,2027.038Z" transform="translate(-50.8 -39.122)"/><path class="a" d="M1724.651,1957.565a1.714,1.714,0,0,1-1.573-1.794,1.572,1.572,0,0,1,1.722-1.708c1.193.009,2.053.613,1.876,1.928A1.739,1.739,0,0,1,1724.651,1957.565Z" transform="translate(-60.956 -25.906)"/><path class="a" d="M1777.124,2022.71c1.035.083,1.8.567,1.826,1.655a1.611,1.611,0,0,1-1.64,1.8c-1.237.059-2.059-.508-2.03-1.808C1775.306,2023.26,1776.106,2022.815,1777.124,2022.71Z" transform="translate(-70.907 -38.99)"/><path class="a" d="M1653.094,2022.045a1.917,1.917,0,0,1,1.854,1.73,1.756,1.756,0,0,1-1.836,2.077,1.829,1.829,0,0,1-1.891-2.072C1651.29,2022.721,1652.119,2022.256,1653.094,2022.045Z" transform="translate(-47.259 -38.863)"/><path class="a" d="M1531.1,1996.759c1.069.292,2.511-.038,2.75,1.643l-.206.112a1.643,1.643,0,0,0-1.467,1.671l-1.582.026-1.465-.038C1528.363,1998.216,1528.87,1996.992,1531.1,1996.759Z" transform="translate(-23.925 -34.044)"/><path class="a" d="M1726.652,1937.123a1.64,1.64,0,0,1,1.6,1.84,1.577,1.577,0,0,1-1.751,1.731,1.6,1.6,0,0,1-1.693-1.81A1.714,1.714,0,0,1,1726.652,1937.123Z" transform="translate(-61.285 -22.677)"/><path class="a" d="M1839.877,2012.579a1.711,1.711,0,0,1-1.747,1.867,1.653,1.653,0,0,1-1.9-1.643,1.677,1.677,0,0,1,1.723-1.836A1.793,1.793,0,0,1,1839.877,2012.579Z" transform="translate(-82.523 -36.751)"/><path class="a" d="M1644.245,2022.317c.076,1.442-.364,2.218-1.521,2.242-1.025.022-1.872-.44-1.9-1.61-.023-1.021.362-1.859,1.569-1.92A1.621,1.621,0,0,1,1644.245,2022.317Z" transform="translate(-45.278 -38.669)"/><path class="a" d="M1620.721,2020.267c-1.05-.088-1.7-.607-1.6-1.74a1.605,1.605,0,0,1,1.853-1.563,1.509,1.509,0,0,1,1.6,1.775A1.527,1.527,0,0,1,1620.721,2020.267Z" transform="translate(-41.141 -37.895)"/><path class="a" d="M1726.593,1932.13a1.587,1.587,0,0,1-1.656-1.781,1.536,1.536,0,0,1,1.716-1.7,1.744,1.744,0,0,1-.06,3.485Z" transform="translate(-61.311 -21.061)"/><path class="a" d="M1662.749,2022.946a1.529,1.529,0,0,1,1.483,1.913c-.132,1.158-.965,1.513-2,1.36a1.468,1.468,0,0,1-1.288-1.694C1660.975,2023.359,1661.655,2022.91,1662.749,2022.946Z" transform="translate(-49.113 -39.035)"/><path class="a" d="M1529.206,2000.977l1.465.038q.045,1.123.091,2.246A2.93,2.93,0,0,1,1529.206,2000.977Z" transform="translate(-24.004 -34.848)"/><path class="a" d="M1906.532,1982.346c-1.776-.286-1.535-1.588-1.425-2.826A4.34,4.34,0,0,1,1906.532,1982.346Z" transform="translate(-95.637 -30.758)"/><path class="a" d="M1535.156,2007.874c1.806-.727,1.479.638,1.567,1.6Z" transform="translate(-25.138 -36.123)"/><path class="a" d="M1534.157,2006.968l.759.721Z" transform="translate(-24.948 -35.99)"/><path class="a" d="M1666.572,1901.852c1.244,1.882,2.5,3.76,3.729,5.651.435.668.949,1.407.117,2.114-.758.645-1.523.255-2.173-.236a11.39,11.39,0,0,1-3.9-4.972C1666.275,1904.6,1666.573,1903.354,1666.572,1901.852Z" transform="translate(-49.761 -15.954)"/><path class="a" d="M1860.13,1962.584l-6.908,4.324c.507-3,2.576-4.432,4.661-5.845C1857.957,1962.567,1858.988,1962.657,1860.13,1962.584Z" transform="translate(-85.762 -27.24)"/><path class="a" d="M1593,2063.169l10.526-.01C1600.021,2064.095,1596.515,2066.262,1593,2063.169Z" transform="translate(-36.164 -46.7)"/><path class="a" d="M1534.438,1998.928a2.75,2.75,0,0,0-.112,3.112c-.929-.03-1.219-.663-1.355-1.441A1.642,1.642,0,0,1,1534.438,1998.928Z" transform="translate(-24.722 -34.457)"/><path class="a" d="M1596.477,1961.067c3.12,1.278,5.746,3.053,6.676,6.742-4.32-2.108-8.485-4.381-13.224-5.127C1592.051,1961.892,1594.949,1964.258,1596.477,1961.067Z" transform="translate(-35.578 -27.241)"/><path class="a" d="M1586.577,1963.021l-6.481,1.315C1581.893,1962.107,1584.368,1963.219,1586.577,1963.021Z" transform="translate(-33.704 -27.593)"/><path class="a" d="M1828.641,1979.149c-.25,1.187-.85,1.909-1.93,1.835a1.694,1.694,0,0,1-1.678-2.2,1.63,1.63,0,0,1,2-1.476C1828.144,1977.453,1828.49,1978.308,1828.641,1979.149Z" transform="translate(-80.382 -30.331)"/><path class="a" d="M1629.083,1980.917c-.191,1.183-.853,1.971-2.117,1.857a1.868,1.868,0,1,1,.36-3.717C1628.433,1979.119,1628.947,1979.842,1629.083,1980.917Z" transform="translate(-42.307 -30.669)"/><path class="a" d="M1834.613,1973.056c1.427.006,2.244.641,2.31,1.866a1.721,1.721,0,0,1-1.689,1.867,1.834,1.834,0,0,1-2.117-1.864A1.715,1.715,0,0,1,1834.613,1973.056Z" transform="translate(-81.93 -29.526)"/><path class="a" d="M1674.895,1919.173a1.92,1.92,0,0,1-1.98,1.984,1.649,1.649,0,0,1-1.819-1.679,1.841,1.841,0,0,1,1.915-2.061C1674.045,1917.373,1674.638,1918.152,1674.895,1919.173Z" transform="translate(-51.048 -18.921)"/><path class="a" d="M1680.154,1929.042a1.726,1.726,0,0,1-1.734,1.8,1.615,1.615,0,0,1-1.842-1.642,1.714,1.714,0,0,1,1.905-1.995C1679.593,1927.241,1680.088,1927.983,1680.154,1929.042Z" transform="translate(-52.093 -20.787)"/><path class="a" d="M1780.912,1931.2c-.2,1-.712,1.807-1.777,1.84a1.851,1.851,0,0,1-2.047-1.946,1.667,1.667,0,0,1,1.709-1.819C1780.085,1929.229,1780.669,1930.048,1780.912,1931.2Z" transform="translate(-71.251 -21.181)"/><path class="a" d="M1774.158,1939.947c-1.226-.245-1.99-.942-1.89-2.175a1.679,1.679,0,0,1,1.88-1.649,1.852,1.852,0,0,1,1.842,2.141A1.747,1.747,0,0,1,1774.158,1939.947Z" transform="translate(-70.331 -22.485)"/><path class="a" d="M1771.012,1945.16a1.907,1.907,0,0,1-1.7,1.867,1.857,1.857,0,1,1-.051-3.691A1.9,1.9,0,0,1,1771.012,1945.16Z" transform="translate(-69.37 -23.86)"/><path class="a" d="M1785.79,1923.061c-.27,1.15-.954,1.918-2.179,1.774a1.678,1.678,0,0,1-1.615-1.869,1.791,1.791,0,0,1,2.107-1.8C1785.16,1921.282,1785.626,1922.062,1785.79,1923.061Z" transform="translate(-72.185 -19.632)"/><path class="a" d="M1621.139,1976.11c-.244,1.131-.826,1.965-2.108,1.865a1.81,1.81,0,0,1-1.744-1.833,1.786,1.786,0,0,1,2.079-1.853A1.875,1.875,0,0,1,1621.139,1976.11Z" transform="translate(-40.792 -29.76)"/><path class="a" d="M1612.332,1969.092a1.725,1.725,0,0,1,1.8,1.7,1.662,1.662,0,0,1-1.91,1.926,1.635,1.635,0,0,1-1.615-1.855A1.708,1.708,0,0,1,1612.332,1969.092Z" transform="translate(-39.519 -28.77)"/><path class="a" d="M1685.806,1950.264c-1.323-.089-2.109-.523-2.146-1.687a1.687,1.687,0,0,1,1.71-1.861,1.575,1.575,0,0,1,1.83,1.673A1.662,1.662,0,0,1,1685.806,1950.264Z" transform="translate(-53.443 -24.504)"/><path class="a" d="M1682.926,1941.1c-1.34-.075-2-.606-2.07-1.7a1.7,1.7,0,1,1,3.4-.177A1.74,1.74,0,0,1,1682.926,1941.1Z" transform="translate(-52.908 -22.755)"/><path class="a" d="M1820.154,1982.551a1.578,1.578,0,0,1-1.569,1.862,1.51,1.51,0,0,1-1.82-1.574c-.076-1.068.328-1.8,1.523-1.83C1819.355,1980.98,1820.057,1981.4,1820.154,1982.551Z" transform="translate(-78.812 -31.041)"/><path class="a" d="M1788.28,1913.715a1.587,1.587,0,0,1-1.851,1.489c-1.141-.063-1.584-.829-1.514-1.9a1.546,1.546,0,0,1,1.819-1.613C1787.86,1911.776,1788.294,1912.533,1788.28,1913.715Z" transform="translate(-72.742 -17.828)"/><path class="a" d="M1846.279,1971.076a1.587,1.587,0,0,1-1.693,1.733,1.547,1.547,0,0,1-1.693-1.723,1.631,1.631,0,0,1,1.682-1.779C1845.654,1969.31,1846.175,1970.036,1846.279,1971.076Z" transform="translate(-83.793 -28.811)"/></g></svg>