<svg xmlns="http://www.w3.org/2000/svg" width="63.459" height="60.286" viewBox="0 0 63.459 60.286"><defs><style>.a{fill:#f6a833;}.b{fill:#fff;font-size:9px;font-family:Avenir-Heavy, Avenir;font-weight:800;}</style></defs><g transform="translate(-1090 -927.265)"><path class="a" d="M44.575,0A5,5,0,0,1,49,2.671L62.233,27.814a5,5,0,0,1,0,4.657L49,57.614a5,5,0,0,1-4.425,2.671H18.883a5,5,0,0,1-4.425-2.671L1.226,32.472a5,5,0,0,1,0-4.657L14.459,2.671A5,5,0,0,1,18.883,0Z" transform="translate(1090 927.265)"/><text class="b" transform="translate(1121.729 954.408)"><tspan x="-20.507" y="0">Hardware</tspan><tspan x="-25.425" y="12">Engineering</tspan></text></g></svg>