<svg xmlns="http://www.w3.org/2000/svg" width="173" height="150" viewBox="0 0 173 150"><defs><style>.a{fill:#fff;}.b{fill:#52330d;font-size:24px;font-family:Avenir-Heavy, Avenir;font-weight:800;}</style></defs><g transform="translate(-766 -8350)"><path class="a" d="M123.973,0a10,10,0,0,1,8.663,5l37.483,65a10,10,0,0,1,0,9.991l-37.483,65a10,10,0,0,1-8.663,5H49.027a10,10,0,0,1-8.663-5L2.881,80a10,10,0,0,1,0-9.991L40.364,5a10,10,0,0,1,8.663-5Z" transform="translate(766 8350)"/><text class="b" transform="translate(853 8412)"><tspan x="-54.684" y="0">Hardware</tspan><tspan x="-67.8" y="32">Engineering</tspan></text></g></svg>